<svg xmlns="http://www.w3.org/2000/svg" viewBox="0 0 155.01 174.9"><g id="Слой_2" data-name="Слой 2"><path d="M25.17 154.05l-5.38 3.11a61 61 0 01-5.62 3.19l1.79-.76a8.78 8.78 0 01-1.8.51l2-.27a8.2 8.2 0 01-2.1 0l2 .27a8.53 8.53 0 01-2-.56l1.79.76c-.36-.17-.69-.37-1-.55-.8-.42.76.54.8.65 0-.16-.42-.37-.55-.49s-.26-.3-.4-.43c-.5-.43.91 1.41.62.82-.19-.41-.47-.78-.66-1.19l.76 1.79a8.6 8.6 0 01-.59-2.11l.27 2a46.06 46.06 0 01-.06-4.7V32.58C15 26.79 15 21 15 15.2a11.46 11.46 0 01.06-1.2l-.27 2a8.6 8.6 0 01.59-2.11l-.76 1.79c.17-.36.38-.7.58-1.06.45-.82-.53.79-.64.8.11 0 .42-.46.5-.54s.31-.25.44-.4c.46-.48-1.42.92-.81.65.4-.18.76-.45 1.16-.63l-1.79.75a9 9 0 012-.55l-2 .26a8.68 8.68 0 012.1 0l-2-.27a9.46 9.46 0 011.8.51l-1.79-.75a45 45 0 014.18 2.34l9.23 5.36L58 39.82 94.9 61.2l31.12 18c4.63 2.68 9.31 5.29 13.89 8 .63.38 1 1.09-.46-.44.35.36.71.72 1.07 1.07-1.46-1.46-.89-1.22-.51-.56q.21.38.39.78l-.76-1.8a8.72 8.72 0 01.54 1.92l-.26-2a8.63 8.63 0 010 2.27l.26-2a8.57 8.57 0 01-.54 1.92l.76-1.79c-.17.35-.36.68-.54 1-.28.51-.87.7.66-.8-.11.1-.19.23-.3.34s-1.43 1.24-.26.33.26-.23 0-.06l-.2.12-1.36.79-6 3.49L111 104.3l-26.71 15.47-23.47 13.61c-3.81 2.21-7.67 4.34-11.44 6.63l-.16.09c-3.39 2-4.88 6.87-2.69 10.26a7.63 7.63 0 0010.26 2.69l9.71-5.63 23-13.36 27.26-15.8 22.27-12.91 6.51-3.77a20.58 20.58 0 005.44-4 15.27 15.27 0 003.23-14.85 15.57 15.57 0 00-6.82-8.44c-.85-.51-1.72-1-2.58-1.5l-14.69-8.52-23.32-13.51L79.56 35 53.38 19.79 32.86 7.9C29.55 6 26.24 4 22.92 2.14c-6-3.45-14-2.8-18.77 2.47A16.39 16.39 0 000 16v141.9a26.29 26.29 0 00.38 5.21c1 5.35 5.41 9.66 10.52 11.21a15.4 15.4 0 0012.17-1.72l9.67-5.6c3.39-2 4.88-6.87 2.69-10.26a7.63 7.63 0 00-10.26-2.69z" fill="#e51717" id="Слой_1-2" data-name="Слой 1"/></g></svg>