<svg xmlns="http://www.w3.org/2000/svg" viewBox="0 0 124.46 92.09"><defs><style>.cls-1{fill:#e51717}</style></defs><g id="Слой_2" data-name="Слой 2"><g id="Слой_1-2" data-name="Слой 1"><path class="cls-1" d="M55.8 82.87c-1.76 1-3.52 2.07-5.3 3.07l-.17.09c-.23.12-.51.16-.29.14a2.4 2.4 0 01-.6 0c.34 0 .08.07-.08-.07.3.25-.49-.38-.31-.21-.35-.33.2.3-.09-.08 0 0-.36-.58-.2-.32-.07-.12 0 0 0-.4V6.88c0-.53-.1.33 0-.16s-.18.31 0-.13c0-.06.36-.58.19-.31s.39-.23.1-.08.39-.21.44-.25c-.34.22 0 0 .12 0-.47.1 0 0 .09 0h.3c.14.06.23.12.35.18l.5.29 2.33 1.35L62.35 13l27.26 15.77L113.4 42.5l4.47 2.58.32.2c-.32-.19 0 .07.09.13-.27-.33 0 0 .06.11.3.53.08.19 0 .07.05.15.35.79.09.33.2.35-.2.89-.59 1.12l-1.75 1-23.48 13.58-22.5 13-1.29.75c-3.34 1.93-.32 7.12 3 5.18l17.96-10.36L116.6 54.7c2.2-1.27 5.07-2.47 6.59-4.58a7.18 7.18 0 00-2.27-10.21c-.45-.27-.91-.52-1.37-.79l-20.63-11.9-29-16.78C64.41 7.29 59 4 53.49 1a7.21 7.21 0 00-8.78 1.12 7.6 7.6 0 00-2 5.43v76.64a10.21 10.21 0 00.3 3 7.2 7.2 0 0010.52 4c1.78-1 3.53-2 5.3-3.06 3.34-1.93.33-7.12-3-5.19z"/><path class="cls-1" d="M10.53 74.14l-4 2.34-.2.11c.31-.17-.36.08-.09 0a.11.11 0 01-.12 0c-.1-.13-.13-.09 0 0s0 .1-.08-.07c.09.31 0-.39 0-.1v-.09C6 74.89 6 73.43 6 72V16.13a2.54 2.54 0 010-.39v.12c0-.44.11-.35 0-.15.08-.15.23-.21.11-.18s.18 0 .16-.13c0 .1-.25.19-.31.19s.44-.18.17-.08.1 0 .19 0c-.48-.16.3.21 0 0h.06l.4.23 1.84 1.06 7 4.07L36.88 33.2l18.43 10.64c1.17.67 2.33 1.37 3.52 2-.33-.18.3.29 0 0 .53.61 0 .1.06 0-.24.13.38.35 0 0V46c0-.35 0 .16-.05.15s.23-.41 0-.07c-.33.24-.09.09-.16.12l-1.41.81-18.05 10.56-17.57 10.15-1 .57c-3.34 1.93-.32 7.12 3 5.18l14.07-8.13 21-12.09c1.87-1.08 4.3-2.11 5.41-4.06a6.3 6.3 0 00-2.25-8.49c-.34-.21-.7-.4-1.06-.61l-16.2-9.35L22 17.65c-4.19-2.42-8.32-5-12.59-7.27A6.28 6.28 0 000 16.08v59.77a7.51 7.51 0 00.65 3.33 6.28 6.28 0 008.8 2.51c1.38-.77 2.73-1.58 4.1-2.37 3.34-1.93.32-7.12-3-5.18z"/></g></g></svg>