<svg xmlns="http://www.w3.org/2000/svg" viewBox="0 0 124.45 92.09"><defs><style>.cls-1{fill:#e51717}</style></defs><g id="Слой_2" data-name="Слой 2"><g id="Слой_1-2" data-name="Слой 1"><path class="cls-1" d="M65.6 88.06c1.79 1 3.55 2.12 5.37 3.1a7.19 7.19 0 0010.53-4.31 24.83 24.83 0 00.22-5.91V10.07c0-2.95.2-5.89-2.21-8.16a7.24 7.24 0 00-8.6-.91c-.6.34-1.19.69-1.78 1l-8.58 5-27.91 16.1L8 37.36c-1.53.85-3 1.64-4.5 2.57a7.18 7.18 0 00-1.79 10.8 10 10 0 002.78 2.05l23 13.28 23.72 13.7 1.37.78c3.35 1.94 6.37-3.24 3-5.18l-17-9.81-26.42-15.27C10.29 49.2 8.35 48.2 6.54 47c-.26-.17-.3-.19-.34-.25S6 46.3 6 46.4c0-.08-.15-.66-.08-.3s.05-.49 0 .06A3.5 3.5 0 016 45.6c-.14.43 0 0 0-.07.32-.51.14-.21.06-.11.28-.35.25-.24.09-.13l.33-.21L8 44.23l19.92-11.48L56.25 16.4l17.33-10 .47-.27.34-.18c-.33.17.14 0 .19 0-.47.05 0 0 .11 0h.09c.73.16-.27-.22.38.14.06 0 .47.3.11.05.07 0 .34.41.12.06.11.17.21.33.31.52-.09-.17-.08-.36 0 .15-.06-.34 0 0 0 .21v78.17c0-.01-.21.48 0 .15-.11.17-.19.35-.31.52.25-.36-.31.13 0 0l-.42.21c-.44.18.4 0-.08 0h-.36c.35 0-.39-.15-.15 0l-.29-.13-.25-.15c-1.75-1-3.48-2-5.22-3-3.35-1.93-6.37 3.25-3 5.18z"/><path class="cls-1" d="M110.87 79.33c1.39.8 2.76 1.65 4.17 2.41a6.28 6.28 0 008.88-2.91c.7-1.66.5-3.61.5-5.38V18.08c0-2.42.12-4.82-1.78-6.72a6.32 6.32 0 00-7.58-1c-.44.24-.86.5-1.29.74l-6.58 3.8-21.81 12.63L66 38.7c-1.16.67-2.36 1.3-3.49 2a6.29 6.29 0 00-2.17 8.61 7.51 7.51 0 002.81 2.47L81 62.07l18.67 10.79 1.07.62c3.35 1.93 6.37-3.25 3-5.18l-13.11-7.59L70 48.82c-1.48-.86-3-1.74-4.44-2.57l-.15-.11s.23.33 0 0 0 0 0 .07-.1-.52 0-.15c0 .16 0 .16 0 0s0-.19 0 0c0 0 .09-.13.17-.18.38-.24.77-.45 1.16-.67l15.46-8.92 21.84-12.62 13.65-7.88.39-.22c.07 0 .32-.08.3 0s-.23-.13-.22-.16c0 .13.37.18.16.12s0 0 .11.19c-.19-.38 0 0 0 .14v-.11a2.8 2.8 0 010 .41v60.43c.06-.21 0 .08-.1 0s-.24.13 0 0 .14-.13 0 0a.12.12 0 01-.13 0c.31 0-.36-.2-.09 0l-.24-.15c-1.35-.73-2.67-1.54-4-2.3-3.35-1.94-6.37 3.25-3 5.18z"/></g></g></svg>