<svg xmlns="http://www.w3.org/2000/svg" viewBox="0 0 155.02 175.04"><g id="Слой_2" data-name="Слой 2"><path d="M48 160H19.44c-1.53 0-3.11.09-4.64-.06l2 .26a9.32 9.32 0 01-2.22-.59l1.79.76c-.45-.2-.86-.45-1.28-.68-.25-.14-.95-.69.11.11s.25.16 0 0c0 0-.44-.47-.43-.47s1.1 1.63.59.75a12.85 12.85 0 01-.77-1.41l.76 1.79a9.6 9.6 0 01-.6-2.22l.27 2c-.15-1.54-.06-3.12-.06-4.67V16.05a12.1 12.1 0 01.06-1.21l-.27 2a9.55 9.55 0 01.6-2.23l-.76 1.8a14.18 14.18 0 01.68-1.28c.14-.26.69-1-.12.11s-.15.24.05 0l.47-.44c.06.07-1.64 1.11-.76.59a14.86 14.86 0 011.42-.76l-1.79.75a9.32 9.32 0 012.22-.59l-2 .27C16.1 15 17.43 15 18.73 15h25.56a46.45 46.45 0 014.71.1l-2-.27a9.58 9.58 0 012.22.59l-1.79-.75c.44.2.85.44 1.27.68.26.14 1 .69-.11-.12s-.24-.16 0 0c0 0 .44.46.44.47s-1.11-1.64-.59-.76a14.86 14.86 0 01.76 1.42l-.75-1.8a9.53 9.53 0 01.55 2.28l-.27-2a45.48 45.48 0 01.06 4.67v139.52q0 .6-.06 1.2l.27-2a9.58 9.58 0 01-.59 2.22l.75-1.79c-.2.44-.44.85-.68 1.28-.14.25-.69 1 .12-.11s.16-.25 0 0c0 0-.46.44-.47.43s1.64-1.1.76-.59c-.47.27-.92.54-1.41.77l1.79-.76a9.58 9.58 0 01-2.22.59l2-.26q-.51 0-1 .06c-3.92.08-7.68 3.39-7.5 7.5s3.3 7.58 7.5 7.5a16.07 16.07 0 0015.82-15.88V15.93A16.08 16.08 0 0048.33 0H15.52a16.32 16.32 0 00-13 7.38A16.45 16.45 0 000 16.72V158.4A15.91 15.91 0 0015.82 175H48c3.92 0 7.68-3.45 7.5-7.5A7.62 7.62 0 0048 160zm91.18 0h-28.55c-1.54 0-3.11.09-4.64-.06l2 .26a9.58 9.58 0 01-2.22-.59l1.79.76c-.44-.2-.85-.45-1.27-.68-.26-.14-1-.69.11.11s.24.16 0 0l-.44-.47c.07-.06 1.11 1.63.59.75a14.69 14.69 0 01-.76-1.41l.75 1.79a9.58 9.58 0 01-.59-2.22l.27 2a45.44 45.44 0 01-.06-4.67V16.05a12.1 12.1 0 01.06-1.21l-.27 2a9.53 9.53 0 01.59-2.23l-.75 1.8a14.18 14.18 0 01.68-1.28c.14-.26.69-1-.12.11s-.16.24.05 0c0 0 .46-.44.47-.44s-1.64 1.11-.76.59a16 16 0 011.41-.76l-1.79.75a9.58 9.58 0 012.22-.59l-2 .27c1.3-.13 2.63-.06 3.93-.06h25.55a46.61 46.61 0 014.73.06l-2-.27a9.32 9.32 0 012.22.59l-1.79-.75a14.18 14.18 0 011.28.68c.25.14 1 .69-.11-.12s-.25-.16 0 0c0 0 .44.46.43.47s-1.1-1.64-.59-.76a13 13 0 01.77 1.42l-.76-1.8a9.55 9.55 0 01.6 2.23l-.27-2c.15 1.54.06 3.13.06 4.67v139.61q0 .6-.06 1.2l.27-2a9.6 9.6 0 01-.6 2.22l.76-1.79c-.2.44-.44.85-.68 1.28-.14.25-.69 1 .12-.11s.15-.25-.05 0c0 0-.47.44-.47.43s1.64-1.1.76-.59c-.47.27-.92.54-1.42.77l1.79-.76a9.32 9.32 0 01-2.22.59l2-.26c-.35 0-.68.05-1 .06-3.92.08-7.69 3.39-7.5 7.5s3.29 7.58 7.5 7.5a16.07 16.07 0 0015.8-15.91V15.93A16.08 16.08 0 00139.52 0c-2.2-.09-4.43 0-6.63 0H106.7a16.34 16.34 0 00-13 7.38 16.44 16.44 0 00-2.44 9.3V158.4A15.91 15.91 0 00107 175h32.17c3.92 0 7.68-3.45 7.5-7.5a7.63 7.63 0 00-7.49-7.5z" fill="#e51717" id="Слой_1-2" data-name="Слой 1"/></g></svg>